#!OML:ASF H:\Pregnant\Project 1\Capture day 1\Session 1\femalepreg.ASF
:FULLY-SPECIFIED
:DEGREES
484
root -3.95099 15.9988 -15.1566 -156.324 38.041 -182.32
lowerback -17.4876 -1.66624 -11.4227
upperback -3.44343 0.82453 -4.05603
thorax 6.03066 0.509049 2.29759
lowerneck -19.4323 -6.21596 -1.40499
upperneck 34.394 -12.5765 16.8932
head 17.4595 -2.02683 5.6148
rclavicle -8.34896e-015 -1.74931e-014
rhumerus -40.2644 3.49334 -80.2976
rradius 27.3045
rwrist 2.44903
rhand -15.7727 -16.3599
rfingers 7.12502
rthumb 10.4194 -46.0817
lclavicle -8.34896e-015 -1.74931e-014
lhumerus -19.294 -15.7129 76.3574
lradius 34.4513
lwrist 35.7748
lhand -30.8968 -5.7828
lfingers 7.12502
lthumb -4.18352 24.1559
rfemur -54.0326 8.99517 20.4348
rtibia 68.3501
rfoot -8.44646 -1.13776
rtoes -14.3081
lfemur -42.9797 -7.22104 -20.4497
ltibia 27.1615
lfoot -6.6662 3.74293
ltoes -11.9901
485
root -3.91399 16.0033 -15.2151 -156.273 38.2478 -182.272
lowerback -17.411 -1.66322 -11.4875
upperback -3.45046 0.810322 -3.95324
thorax 5.97934 0.498813 2.44065
lowerneck -19.4888 -6.17735 -1.47259
upperneck 34.5027 -12.4696 16.7377
head 17.4986 -2.01241 5.5834
rclavicle 3.53837e-014 -2.8625e-014
rhumerus -39.9625 3.43846 -80.3508
rradius 27.8388
rwrist 3.01042
rhand -15.415 -15.9604
rfingers 7.12502
rthumb 10.7645 -45.6646
lclavicle 3.53837e-014 -2.8625e-014
lhumerus -18.9533 -14.503 76.3683
lradius 34.8093
lwrist 36.8853
lhand -31.2161 -5.64317
lfingers 7.12502
lthumb -4.49185 24.2892
rfemur -54.6945 9.03454 20.2688
rtibia 67.5626
rfoot -8.8895 -1.68049
rtoes -14.4724
lfemur -42.6904 -7.12316 -20.5099
ltibia 27.2118
lfoot -6.9564 3.94872
ltoes -12.1087
486
root -3.87738 16.0086 -15.2736 -156.23 38.3903 -182.223
lowerback -17.3136 -1.666 -11.5117
upperback -3.46015 0.777002 -3.84804
thorax 5.91688 0.480491 2.55961
lowerneck -19.5409 -6.13861 -1.51991
upperneck 34.6228 -12.3669 16.5837
head 17.5428 -1.99474 5.54996
rclavicle 3.18055e-014 -3.81667e-014
rhumerus -39.6776 3.34893 -80.4102
rradius 28.4329
rwrist 3.31151
rhand -15.0447 -15.6902
rfingers 7.12502
rthumb 11.1216 -45.3755
lclavicle 3.18055e-014 -3.81667e-014
lhumerus -18.6439 -13.3695 76.413
lradius 35.1575
lwrist 38.0331
lhand -31.4235 -5.34801
lfingers 7.12502
lthumb -4.69203 24.58
rfemur -55.2946 9.03023 20.1155
rtibia 66.7047
rfoot -9.2874 -2.42959
rtoes -14.5772
lfemur -42.3815 -7.08149 -20.5497
ltibia 27.2254
lfoot -7.22963 4.15458
ltoes -12.2367
487
root -3.84119 16.0143 -15.3316 -156.189 38.4704 -182.165
lowerback -17.1922 -1.67407 -11.4915
upperback -3.47492 0.723667 -3.73804
thorax 5.83905 0.453889 2.65472
lowerneck -19.5761 -6.09969 -1.56068
upperneck 34.7393 -12.2656 16.443
head 17.5826 -1.97485 5.52143
rclavicle -4.69132e-014 -3.97569e-014
rhumerus -39.4235 3.27013 -80.4979
rradius 29.1018
rwrist 3.31735
rhand -14.6877 -15.5342
rfingers 7.12502
rthumb 11.466 -45.2006
lclavicle -4.69132e-014 -3.97569e-014
lhumerus -18.3652 -12.3136 76.488
lradius 35.4892
lwrist 39.1927
lhand -31.573 -4.96526
lfingers 7.12502
lthumb -4.83641 24.9595
rfemur -55.8409 8.99449 19.9791
rtibia 65.7838
rfoot -9.65142 -3.38395
rtoes -14.6581
lfemur -42.0567 -7.08618 -20.5633
ltibia 27.1994
lfoot -7.47904 4.35439
ltoes -12.3512
488
root -3.80535 16.0206 -15.3896 -156.156 38.4948 -182.118
lowerback -17.0613 -1.69079 -11.4403
upperback -3.48809 0.652353 -3.62919
thorax 5.76074 0.418991 2.72763
lowerneck -19.6362 -6.07114 -1.5856
upperneck 34.8672 -12.1852 16.2919
head 17.6366 -1.96064 5.48196
rclavicle 6.91771e-014 4.77083e-014
rhumerus -39.1724 3.17254 -80.6019
rradius 29.8033
rwrist 3.07954
rhand -14.3718 -15.5106
rfingers 7.12502
rthumb 11.7706 -45.1598
lclavicle 6.91771e-014 4.77083e-014
lhumerus -18.1001 -11.353 76.5844
lradius 35.7962
lwrist 40.3555
lhand -31.7273 -4.61371
lfingers 7.12502
lthumb -4.98544 25.3076
rfemur -56.3437 8.92288 19.8394
rtibia 64.808
rfoot -9.96826 -4.51211
rtoes -14.6663
lfemur -41.718 -7.13082 -20.5719
ltibia 27.1337
lfoot -7.70819 4.53533
ltoes -12.418
489
root -3.76937 16.0271 -15.447 -156.118 38.4769 -182.065
lowerback -16.9254 -1.71558 -11.358
upperback -3.50181 0.563855 -3.51628
thorax 5.68186 0.376075 2.78404
lowerneck -19.6838 -6.04022 -1.60984
upperneck 34.9747 -12.1022 16.1536
head 17.6777 -1.94555 5.44671
rclavicle 5.80451e-014 6.36111e-015
rhumerus -38.891 3.04277 -80.7182
rradius 30.4773
rwrist 2.64571
rhand -14.1506 -15.4384
rfingers 7.12502
rthumb 11.9839 -45.0753
lclavicle 5.80451e-014 6.36111e-015
lhumerus -17.851 -10.4815 76.6932
lradius 36.0773
lwrist 41.5072
lhand -31.853 -4.24094
lfingers 7.12502
lthumb -5.10678 25.6775
rfemur -56.8096 8.83945 19.7018
rtibia 63.78
rfoot -10.2315 -5.761
rtoes -14.517
lfemur -41.376 -7.21123 -20.5559
ltibia 27.0426
lfoot -7.92319 4.71097
ltoes -12.4066
490
root -3.73266 16.0337 -15.5036 -156.07 38.4457 -182
lowerback -16.7998 -1.73576 -11.2501
upperback -3.51404 0.478731 -3.4021
thorax 5.61006 0.334585 2.82858
lowerneck -19.7054 -6.01168 -1.65989
upperneck 35.0417 -12.0204 16.0529
head 17.6967 -1.93329 5.42961
rclavicle 5.06901e-014 0
rhumerus -38.5865 2.88101 -80.8472
rradius 31.1309
rwrist 2.03504
rhand -14.0148 -15.3624
rfingers 7.12502
rthumb 12.1148 -44.9916
lclavicle 5.06901e-014 0
lhumerus -17.6085 -9.7046 76.8177
lradius 36.3257
lwrist 42.6104
lhand -32.1061 -4.21254
lfingers 7.12502
lthumb -5.35115 25.6999
rfemur -57.2448 8.77138 19.5561
rtibia 62.7023
rfoot -10.4369 -7.05612
rtoes -14.1588
lfemur -41.0297 -7.29623 -20.5224
ltibia 26.9339
lfoot -8.13827 4.8794
ltoes -12.3056
491
root -3.69448 16.0402 -15.5592 -156.006 38.4294 -181.924
lowerback -16.6945 -1.7517 -11.1376
upperback -3.52932 0.401969 -3.28541
thorax 5.54509 0.297116 2.87507
lowerneck -19.7047 -5.98239 -1.72241
upperneck 35.0792 -11.9375 15.9795
head 17.698 -1.92133 5.42505
rclavicle 2.3059e-014 1.74931e-014
rhumerus -38.2577 2.70859 -81.0006
rradius 31.7542
rwrist 1.27955
rhand -13.9714 -15.2838
rfingers 7.12502
rthumb 12.1567 -44.9106
lclavicle 2.3059e-014 1.74931e-014
lhumerus -17.3821 -9.02384 76.9507
lradius 36.547
lwrist 43.6494
lhand -32.3452 -4.26897
lfingers 7.12502
lthumb -5.58206 25.6375
rfemur -57.6668 8.74298 19.389
rtibia 61.5787
rfoot -10.5729 -8.32403
rtoes -13.5461
lfemur -40.6856 -7.36745 -20.4755
ltibia 26.8184
lfoot -8.36541 5.04976
ltoes -12.1375
492
root -3.65438 16.0467 -15.6138 -155.924 38.4389 -181.844
lowerback -16.6228 -1.7546 -11.0205
upperback -3.5466 0.349025 -3.18017
thorax 5.49338 0.271372 2.91191
lowerneck -19.6913 -5.95942 -1.78042
upperneck 35.0889 -11.8712 15.9347
head 17.6867 -1.91308 5.42718
rclavicle 4.92986e-014 -3.81667e-014
rhumerus -37.9372 2.54942 -81.204
rradius 32.396
rwrist 0.373935
rhand -14.0135 -15.1884
rfingers 7.12502
rthumb 12.116 -44.8176
lclavicle 4.92986e-014 -3.81667e-014
lhumerus -17.1621 -8.47813 77.0833
lradius 36.7383
lwrist 44.6059
lhand -32.5279 -4.37753
lfingers 7.12502
lthumb -5.7584 25.5242
rfemur -58.0904 8.76322 19.187
rtibia 60.4141
rfoot -10.6494 -9.49732
rtoes -12.6634
lfemur -40.3428 -7.41192 -20.4248
ltibia 26.6862
lfoot -8.60379 5.21745
ltoes -11.931
